<svg xmlns="http://www.w3.org/2000/svg" xml:space="preserve" fill-rule="evenodd" stroke-linejoin="round" stroke-miterlimit="2" clip-rule="evenodd" viewBox="0 0 750 750">
  <path fill="none" d="M0 0h750v750H0z"/>
  <path fill="#c2000b" fill-rule="nonzero" d="M696.32 132.2a573.73 573.73 0 0 0-57.33-34.49 619 619 0 0 0-63.6-28.93A596.56 596.56 0 0 0 438.72 33.2c-10.81-1.48-22.55-3.07-38.4-4.01a424.49 424.49 0 0 0-50.64 0c-15.85.94-27.59 2.53-38.4 4.01A596.56 596.56 0 0 0 174.6 68.78 619 619 0 0 0 111 97.71a573.73 573.73 0 0 0-57.33 34.49 530.98 530.98 0 0 0-34.7 26.1L219 629.3l7.68-3.78 8.6-4.23c6.72-3.24 12.28-5.4 15-6.46 10.27-4 18.73-6.25 24.46-7.76a309.7 309.7 0 0 1 31.08-6.38 443.46 443.46 0 0 1 69.17-5.47 443.42 443.42 0 0 1 69.17 5.47 306.79 306.79 0 0 1 31.08 6.38c5.73 1.5 14.2 3.76 24.45 7.76 2.73 1.06 8.3 3.22 15 6.46l8.61 4.23 7.68 3.78 200.03-471a530.98 530.98 0 0 0-34.7-26.1"/>
  <path fill="#fff" fill-rule="nonzero" d="M600.06 312.6c0 124.29-100.76 225.05-225.06 225.05S149.94 436.9 149.94 312.6 250.7 87.53 375 87.53s225.06 100.76 225.06 225.06"/>
  <path fill="#1a1a1a" fill-rule="nonzero" d="m371.76 705.43 34-94.14a237.78 237.78 0 0 1 115.15 32.36l-149.15 61.78"/>
  <path fill="#c2000b" fill-rule="nonzero" d="m374.8 87.53 72.5 126.68 142.89 29.81-98.07 108.1 15.8 145.11-133.12-59.86-133.13 59.86 15.8-145.1-98.07-108.1 142.9-29.83 72.5-126.68Zm14.7 626.52 151.43-62 37.6-89.99a219.37 219.37 0 0 0 69.25 59.23 219.28 219.28 0 0 0 83.24 25.52c-38.85 24.43-108.36 60.69-201.87 71.57a479.5 479.5 0 0 1-139.65-4.33"/>
</svg>
